<?xml version="1.0" encoding="UTF-8"?>
<svg xmlns="http://www.w3.org/2000/svg" xmlns:xlink="http://www.w3.org/1999/xlink" width="12pt" height="12pt" viewBox="0 0 12 12" version="1.1">
<g id="surface4616">
<path style=" stroke:none;fill-rule:nonzero;fill:rgb(9.019608%,9.019608%,9.411765%);fill-opacity:1;" d="M 1.875 1.5 C 1.253906 1.5 0.75 2.003906 0.75 2.625 L 0.75 9.375 C 0.75 9.996094 1.253906 10.5 1.875 10.5 L 4.953125 10.5 C 4.835938 10.261719 4.734375 10.011719 4.660156 9.75 L 1.875 9.75 C 1.667969 9.75 1.5 9.582031 1.5 9.375 L 1.5 8.679688 L 4.167969 5.675781 L 5.039062 6.59375 C 5.164062 6.371094 5.3125 6.160156 5.476562 5.964844 L 4.148438 4.566406 L 1.5 7.550781 L 1.5 2.625 C 1.5 2.417969 1.667969 2.25 1.875 2.25 L 10.125 2.25 C 10.332031 2.25 10.5 2.417969 10.5 2.625 L 10.5 4.953125 C 10.765625 5.09375 11.023438 5.253906 11.25 5.445312 L 11.25 2.625 C 11.25 2.003906 10.746094 1.5 10.125 1.5 Z M 8.25 3 C 7.835938 3 7.5 3.335938 7.5 3.75 C 7.5 4.164062 7.835938 4.5 8.25 4.5 C 8.664062 4.5 9 4.164062 9 3.75 C 9 3.335938 8.664062 3 8.25 3 Z M 8.625 5.25 C 6.765625 5.25 5.25 6.765625 5.25 8.625 C 5.25 10.484375 6.765625 12 8.625 12 C 10.484375 12 12 10.484375 12 8.625 C 12 6.765625 10.484375 5.25 8.625 5.25 Z M 8.625 6 C 10.078125 6 11.25 7.171875 11.25 8.625 C 11.25 10.078125 10.078125 11.25 8.625 11.25 C 7.171875 11.25 6 10.078125 6 8.625 C 6 7.171875 7.171875 6 8.625 6 Z M 8.25 6.75 L 8.25 8.25 L 6.75 8.25 L 6.75 9 L 8.25 9 L 8.25 10.5 L 9 10.5 L 9 9 L 10.5 9 L 10.5 8.25 L 9 8.25 L 9 6.75 Z M 8.25 6.75 "/>
</g>
</svg>
