<?xml version="1.0" encoding="UTF-8"?>
<svg xmlns="http://www.w3.org/2000/svg" xmlns:xlink="http://www.w3.org/1999/xlink" width="12pt" height="12pt" viewBox="0 0 12 12" version="1.1">
<g id="surface4206">
<path style=" stroke:none;fill-rule:nonzero;fill:rgb(9.019608%,9.019608%,9.411765%);fill-opacity:1;" d="M 1.875 1.5 C 1.257812 1.5 0.75 2.007812 0.75 2.625 L 0.75 9.375 C 0.75 9.992188 1.257812 10.5 1.875 10.5 L 10.125 10.5 C 10.742188 10.5 11.25 9.992188 11.25 9.375 L 11.25 2.625 C 11.25 2.007812 10.742188 1.5 10.125 1.5 Z M 1.875 2.25 L 10.125 2.25 C 10.335938 2.25 10.5 2.414062 10.5 2.625 L 10.5 8.074219 L 7.871094 5.300781 L 6.40625 6.949219 L 4.148438 4.566406 L 1.5 7.550781 L 1.5 2.625 C 1.5 2.414062 1.664062 2.25 1.875 2.25 Z M 8.25 3 C 7.835938 3 7.5 3.335938 7.5 3.75 C 7.5 4.164062 7.835938 4.5 8.25 4.5 C 8.664062 4.5 9 4.164062 9 3.75 C 9 3.335938 8.664062 3 8.25 3 Z M 4.167969 5.675781 L 8.03125 9.75 L 1.875 9.75 C 1.664062 9.75 1.5 9.585938 1.5 9.375 L 1.5 8.679688 Z M 7.886719 6.410156 L 10.5 9.164062 L 10.5 9.375 C 10.5 9.585938 10.335938 9.75 10.125 9.75 L 9.0625 9.75 L 6.925781 7.496094 Z M 7.886719 6.410156 "/>
</g>
</svg>
