<?xml version="1.0" encoding="UTF-8"?>
<svg xmlns="http://www.w3.org/2000/svg" xmlns:xlink="http://www.w3.org/1999/xlink" width="12pt" height="12pt" viewBox="0 0 12 12" version="1.1">
<g id="surface4030">
<path style=" stroke:none;fill-rule:nonzero;fill:rgb(9.019608%,9.019608%,9.411765%);fill-opacity:1;" d="M 1.5 1.5 L 1.5 3.75 L 2.25 3.75 L 2.25 2.25 L 3.75 2.25 L 3.75 1.5 Z M 8.25 1.5 L 8.25 2.25 L 9.75 2.25 L 9.75 3.75 L 10.5 3.75 L 10.5 1.5 Z M 6 5.25 C 5.585938 5.25 5.25 5.585938 5.25 6 C 5.25 6.414062 5.585938 6.75 6 6.75 C 6.414062 6.75 6.75 6.414062 6.75 6 C 6.75 5.585938 6.414062 5.25 6 5.25 Z M 1.5 8.25 L 1.5 10.5 L 3.75 10.5 L 3.75 9.75 L 2.25 9.75 L 2.25 8.25 Z M 9.75 8.25 L 9.75 9.75 L 8.25 9.75 L 8.25 10.5 L 10.5 10.5 L 10.5 8.25 Z M 9.75 8.25 "/>
</g>
</svg>
