<?xml version="1.0" encoding="UTF-8"?>
<svg xmlns="http://www.w3.org/2000/svg" xmlns:xlink="http://www.w3.org/1999/xlink" width="12pt" height="12pt" viewBox="0 0 12 12" version="1.1">
<g id="surface3414">
<path style=" stroke:none;fill-rule:nonzero;fill:rgb(9.019608%,9.019608%,9.411765%);fill-opacity:1;" d="M 2.632812 0.75 C 2.011719 0.75 1.503906 1.257812 1.503906 1.875 L 1.503906 3.171875 L 1.5 3.160156 C 0.921875 3.371094 0.617188 4.023438 0.828125 4.601562 L 2.15625 8.261719 C 2.316406 8.691406 2.71875 8.972656 3.152344 8.996094 L 4.058594 10.09375 C 4.449219 10.570312 5.164062 10.640625 5.644531 10.25 L 5.644531 10.246094 L 10.089844 6.582031 C 10.34375 6.371094 10.484375 6.070312 10.5 5.765625 L 10.484375 5.765625 C 10.488281 5.71875 10.496094 5.675781 10.496094 5.625 L 10.5 1.882812 C 10.5 1.261719 9.992188 0.757812 9.375 0.757812 Z M 2.628906 1.5 L 6.75 1.503906 L 6.75 6 L 2.625 6 C 2.414062 6 2.25 5.835938 2.25 5.625 L 2.253906 1.875 C 2.253906 1.660156 2.417969 1.5 2.628906 1.5 Z M 7.5 1.503906 L 9.375 1.507812 C 9.585938 1.507812 9.75 1.667969 9.75 1.882812 L 9.746094 5.625 C 9.746094 5.839844 9.585938 6 9.371094 6 L 7.5 6 Z M 8.625 2.25 C 8.417969 2.25 8.25 2.417969 8.25 2.625 C 8.25 2.832031 8.417969 3 8.625 3 C 8.832031 3 9 2.832031 9 2.625 C 9 2.417969 8.832031 2.25 8.625 2.25 Z M 2.398438 6.726562 C 2.472656 6.742188 2.550781 6.75 2.625 6.75 L 7.402344 6.75 L 3.34375 8.226562 C 3.144531 8.300781 2.9375 8.203125 2.863281 8.003906 Z M 8.003906 7.332031 L 5.164062 9.667969 C 5 9.804688 4.769531 9.78125 4.636719 9.617188 L 3.964844 8.800781 Z M 8.003906 7.332031 "/>
</g>
</svg>
